<?xml version="1.0" encoding="UTF-8" standalone="no"?>
<!-- Generator: Gravit.io -->
<svg xmlns="http://www.w3.org/2000/svg" xmlns:xlink="http://www.w3.org/1999/xlink" style="isolation:isolate" viewBox="0 0 993.6 306.988" width="993.6" height="306.988"><defs><clipPath id="_clipPath_9c36rflKkOIAfMfAa77R3hGORbeyOdmC"><rect width="993.6" height="306.988"/></clipPath></defs><g clip-path="url(#_clipPath_9c36rflKkOIAfMfAa77R3hGORbeyOdmC)"><g id="Group"><path d=" M 268.3 32.188 L 265.2 37.588 L 260 46.788 L 265.2 37.588 L 149.3 238.288 C 150.5 238.288 151.7 238.288 153 238.288 L 263.7 46.588 L 263.7 46.588 L 263.7 46.588 L 271 33.888 C 270.1 33.288 269.2 32.688 268.3 32.188 Z " fill="none"/><path d=" M 412.2 190.788 C 410.7 171.588 402.6 153.388 391.3 137.988 C 377.8 119.788 358.9 105.288 337 98.788 C 316.5 92.488 294.2 94.388 274.3 101.788 C 280.3 101.988 286.3 100.788 292.3 100.888 C 305.9 101.188 319.5 103.988 331.7 109.988 C 350.9 119.088 366.7 135.588 374.4 155.588 C 380.3 170.588 381.2 187.888 375 202.988 C 368.7 218.888 354.8 230.788 339.3 237.088 C 319.7 245.388 298.3 246.588 277.2 245.588 C 272.4 216.688 262.4 181.988 246.4 148.288 C 240.7 158.888 234.4 169.188 227.6 179.188 L 265.5 244.888 C 265 244.888 264.4 244.788 263.9 244.788 C 263.2 244.688 262.4 244.688 261.7 244.588 L 225.6 182.088 C 221.7 187.788 217.5 193.288 213.3 198.788 C 211.3 201.288 209.3 203.788 207.3 206.288 C 218.5 219.988 230.2 232.288 241.7 242.988 C 218.8 241.088 195.8 239.188 172.9 238.488 C 222 191.788 274.4 115.888 273.1 35.288 C 278.7 39.088 284 43.288 289 47.788 C 302.2 59.288 312.9 73.388 322.6 87.888 C 321.4 83.888 319.3 80.188 317.1 76.688 C 306.1 58.088 291.3 41.788 273.7 29.188 L 263.6 46.588 L 153 238.188 C 151.8 238.188 150.6 238.188 149.3 238.188 L 265.2 37.488 L 271.1 27.188 C 264.4 22.588 257.3 18.388 249.8 14.888 C 208.3 -4.812 158 -5.112 116.6 14.888 C 96.3 24.488 78.5 39.188 65.1 57.088 C 53.4 72.488 45.5 90.388 40.5 108.988 C 33.4 135.788 33 164.588 40.7 191.388 C 46.2 210.988 56.3 229.188 69.5 244.688 C 74.4 243.288 79.3 241.888 84.3 240.788 C 81.6 236.788 78.7 232.988 76 229.088 C 61.9 207.788 55.2 181.988 55.7 156.488 C 56.4 137.588 59.9 118.588 66.9 100.988 C 91 41.688 158.4 3.088 221.7 14.288 C 237.5 16.988 252.6 22.688 266.4 30.788 C 188.5 73.888 148.4 170.688 136 238.688 C 127.9 239.088 119.8 239.688 111.7 240.588 C 86.7 243.588 61.6 249.788 39.8 262.788 C 22.6 273.088 8.2 288.388 0 306.788 C 4.9 302.488 9 297.188 14 292.988 C 33.8 275.488 59.7 266.688 85.5 262.788 C 102.4 260.388 119.5 259.388 136.6 259.888 C 187.3 260.588 237.4 269.188 287.9 271.088 C 310.8 271.588 334.1 271.388 356.2 264.988 C 372.2 260.288 387.5 251.688 397.5 238.088 C 407.6 224.588 413.7 207.688 412.2 190.788 Z " fill="rgb(141,201,253)"/><path d=" M 150.7 269.788 C 124.5 267.388 97.7 266.288 71.9 272.688 C 50.9 277.788 30.9 289.388 18 306.988 C 22.3 305.088 26.2 302.388 30.4 300.288 C 47 291.788 65.6 287.788 84.1 286.288 C 140.8 281.988 196.7 297.088 253.4 296.588 C 276.6 296.688 300.4 293.388 321.3 282.988 C 323.7 281.788 326.2 280.488 328.1 278.588 C 317.4 280.488 306.6 282.388 295.7 282.888 C 247.1 285.188 199.1 274.288 150.7 269.788 Z " fill="rgb(51,51,51)"/><path d=" M 199.5 84.888 C 200.7 83.388 201.9 81.888 203.1 80.388 C 186 60.488 165.8 43.288 142.2 31.088 L 185 105.188 C 189.5 98.288 194.4 91.488 199.5 84.888 Z " fill="rgb(51,51,51)"/><path d=" M 164.8 140.888 C 170.3 129.688 176.4 118.688 183.1 108.188 L 139.5 32.688 C 137.8 70.488 148.2 107.488 164.8 140.888 Z " fill="rgb(51,51,51)"/></g><g id="Group"><g id="Group"><g id="Group"><path d=" M 448 132.288 L 448 87.588 C 448 62.088 462 46.588 485.4 46.588 C 508.8 46.588 522.8 62.088 522.8 87.588 L 522.8 132.288 C 522.8 157.788 508.8 173.288 485.4 173.288 C 462 173.388 448 157.788 448 132.288 Z  M 504.6 132.288 L 504.6 87.588 C 504.6 72.188 498 63.888 485.4 63.888 C 472.7 63.888 466.2 72.288 466.2 87.588 L 466.2 132.288 C 466.2 147.688 472.7 155.988 485.4 155.988 C 497.9 156.088 504.6 147.688 504.6 132.288 Z " fill="rgb(141,201,253)"/><path d=" M 604.1 113.288 L 604.1 171.088 L 587.2 171.088 L 587.2 114.188 C 587.2 99.188 583.2 92.888 574.3 92.888 C 564.7 92.888 558.6 100.588 558.6 114.188 L 558.6 171.088 L 541.6 171.088 L 541.6 79.088 L 553.6 79.088 L 555.3 89.388 C 560 81.488 567.7 76.788 578.2 76.788 C 594.1 76.788 604.1 88.188 604.1 113.288 Z " fill="rgb(141,201,253)"/><path d=" M 695.8 136.188 C 695.8 157.988 681.8 171.088 660.5 171.088 L 625.6 171.088 L 625.6 48.888 L 658.8 48.888 C 678.5 48.888 691.3 61.588 691.3 82.088 C 691.3 93.988 686.4 103.588 678.9 108.288 C 689.3 112.588 695.8 122.888 695.8 136.188 Z  M 643.2 65.488 L 643.2 100.588 L 657.2 100.588 C 667.9 100.588 673.3 94.488 673.3 82.588 C 673.3 71.088 668.1 65.488 656.7 65.488 L 643.2 65.488 Z  M 677.8 136.188 C 677.8 123.588 669.9 117.188 657.5 117.188 L 643.2 117.188 L 643.2 154.588 L 658.2 154.588 C 671.1 154.488 677.8 148.588 677.8 136.188 Z " fill="rgb(141,201,253)"/><path d=" M 709.2 138.288 L 709.2 111.688 C 709.2 89.188 721.6 76.788 741.5 76.788 C 761.6 76.788 774 89.188 774 111.688 L 774 138.188 C 774 160.688 761.6 173.088 741.5 173.088 C 721.6 173.188 709.2 160.788 709.2 138.288 Z  M 756.9 138.288 L 756.9 111.688 C 756.9 98.788 751.1 93.188 741.5 93.188 C 732.1 93.188 726.3 98.788 726.3 111.688 L 726.3 138.188 C 726.3 151.088 732.1 156.688 741.5 156.688 C 751.1 156.788 756.9 151.188 756.9 138.288 Z " fill="rgb(141,201,253)"/><path d=" M 851.1 109.988 L 851.1 171.088 L 837.3 171.088 L 836.1 162.388 C 832.3 168.888 825.6 173.388 815.7 173.388 C 798.8 173.388 787.4 162.188 787.4 144.888 C 787.4 126.188 800.3 116.588 820.7 116.588 L 834.1 116.588 L 834.1 109.988 C 834.1 99.188 830.1 93.088 820.8 93.088 C 813.3 93.088 807.7 97.088 806.8 105.288 L 789.9 105.288 C 790.8 87.688 802.6 76.788 821.2 76.788 C 841 76.788 851.1 88.888 851.1 109.988 Z  M 834.2 130.788 L 820.8 130.788 C 810.5 130.788 804.6 135.688 804.6 144.888 C 804.6 153.288 810 158.288 819.3 158.288 C 828.6 158.288 834.3 152.388 834.3 142.788 L 834.3 130.788 L 834.2 130.788 Z " fill="rgb(141,201,253)"/><path d=" M 918.5 78.388 L 918.5 95.188 C 915.2 93.788 911.7 93.088 907.2 93.088 C 895.7 93.088 888.3 101.088 888.3 115.988 L 888.3 171.188 L 871.4 171.188 L 871.4 79.188 L 883.4 79.188 L 885.3 90.388 C 890.2 81.988 898 77.088 908.9 77.088 C 912.8 76.988 915.9 77.288 918.5 78.388 Z " fill="rgb(141,201,253)"/><path d=" M 991.3 44.688 L 991.3 171.088 L 979.1 171.088 L 977.9 162.488 C 973.4 168.388 965.5 173.188 957.1 173.188 C 939.8 173.188 927.9 159.888 927.9 137.388 L 927.9 112.088 C 927.9 89.888 939.2 76.788 957.1 76.788 C 963.7 76.788 970.4 79.588 974.9 84.288 L 974.9 44.688 L 991.3 44.688 Z  M 974.9 112.088 C 974.9 100.188 969.1 92.888 959.9 92.888 C 950.1 92.888 945.1 98.788 945.1 112.088 L 945.1 137.388 C 945.1 150.988 950.7 157.088 959.9 157.088 C 968.6 157.088 974.9 150.788 974.9 137.488 L 974.9 112.088 Z " fill="rgb(141,201,253)"/></g></g><g id="Group"><g id="Group"><path d=" M 448 230.988 L 453.2 230.988 C 453.5 238.288 457.7 242.188 464.2 242.188 C 471.4 242.188 474.9 237.688 474.9 231.288 C 474.9 217.588 448.8 217.588 448.8 200.388 C 448.8 192.288 455 185.988 464.1 185.988 C 473.4 185.988 479.1 192.588 479.5 201.888 L 474.3 201.888 C 474 194.488 469.9 191.088 464.3 191.088 C 457.9 191.088 454.2 194.788 454.2 200.488 C 454.2 214.188 480.3 213.688 480.3 231.388 C 480.3 239.388 474.8 247.288 464.4 247.288 C 454.7 247.288 448.3 240.788 448 230.988 Z " fill="rgb(51,51,51)"/><path d=" M 505.9 241.888 L 505.9 246.588 L 503.4 246.588 C 495.3 246.588 490.8 241.488 490.8 232.988 L 490.8 206.488 L 484.1 206.488 L 484.1 201.888 L 490.8 201.888 L 490.8 191.688 L 495.8 191.688 L 495.8 201.888 L 504.9 201.888 L 504.9 206.488 L 495.8 206.488 L 495.8 232.988 C 495.8 238.788 498.2 241.888 503.4 241.888 L 505.9 241.888 Z " fill="rgb(51,51,51)"/><path d=" M 541 201.888 L 541 246.188 L 536.9 246.188 L 536.1 240.688 C 533.8 244.688 530 247.188 524.6 247.188 C 517.4 247.188 512.7 242.388 512.7 230.188 L 512.7 201.888 L 517.7 201.888 L 517.7 229.488 C 517.7 238.388 520.1 242.488 525.9 242.488 C 532.1 242.488 536.1 237.388 536.1 228.788 L 536.1 201.988 L 541 201.988 L 541 201.888 Z " fill="rgb(51,51,51)"/><path d=" M 580 185.088 L 580 246.188 L 576 246.188 L 575.3 242.088 C 572.9 245.388 569.1 247.188 564.8 247.188 C 556.8 247.188 551.1 241.488 551.1 230.188 L 551.1 217.488 C 551.1 206.488 556.3 200.888 564.8 200.888 C 568.8 200.888 572.6 202.488 575.1 205.888 L 575.1 185.188 L 580 185.188 L 580 185.088 Z  M 575.1 230.388 L 575.1 217.488 C 575.1 210.388 571.5 205.488 565.9 205.488 C 559.4 205.488 556.1 208.988 556.1 217.488 L 556.1 230.188 C 556.1 238.888 559.7 242.488 565.9 242.488 C 571 242.588 575.1 238.688 575.1 230.388 Z " fill="rgb(51,51,51)"/><path d=" M 617.5 201.888 L 602.5 251.588 C 600.5 258.188 598 262.288 591.9 262.288 L 589 262.288 L 589 257.388 L 591.2 257.388 C 595.2 257.388 596.4 254.388 597.5 250.788 L 600.2 241.788 L 586.2 201.888 L 591.7 201.888 L 598.9 222.488 L 602.6 233.888 L 612.3 201.888 L 617.5 201.888 L 617.5 201.888 Z " fill="rgb(51,51,51)"/><path d=" M 677 246.188 C 675.4 243.788 673.8 241.488 672.1 239.088 C 668.5 243.688 663.8 247.288 657.4 247.288 C 649.7 247.288 643.9 242.088 643.9 232.988 C 643.9 224.688 649 219.188 654.4 214.288 C 650.4 208.088 647.8 202.388 647.8 197.688 C 647.8 191.288 651.8 186.088 659.6 186.088 C 668 186.088 671.6 192.288 671.4 198.688 C 671.1 205.588 666.2 210.488 661.1 215.188 C 664.2 219.888 667.8 224.988 671.6 229.988 C 672.9 227.388 673.9 224.788 674.6 222.588 L 680.4 222.588 C 679.2 226.088 677.5 230.588 675.1 234.788 C 678.1 238.788 680.9 242.788 683.2 246.288 L 677 246.288 L 677 246.188 Z  M 668.9 234.588 C 664.9 228.988 660.8 223.688 657.3 218.688 C 653.1 222.688 649.5 226.988 649.5 232.388 C 649.5 238.188 653.2 242.188 657.9 242.188 C 662.3 242.188 666 238.888 668.9 234.588 Z  M 658.3 210.788 C 662.6 206.888 666.2 203.188 666.2 198.488 C 666.2 194.488 663.8 191.188 659.6 191.188 C 655.4 191.188 653 194.188 653 197.888 C 653.1 200.988 655.2 205.488 658.3 210.788 Z " fill="rgb(51,51,51)"/><path d=" M 753.5 187.188 L 753.5 246.188 L 748.3 246.188 L 748.3 214.988 C 748.3 208.788 748.5 203.488 748.8 198.288 L 748.5 198.188 C 747 202.388 744.6 208.088 742.4 213.688 L 735.1 232.288 L 729.9 232.288 L 722.6 213.688 C 720.4 208.088 718 202.388 716.5 198.188 L 716.2 198.288 C 716.5 203.488 716.7 208.788 716.7 214.988 L 716.7 246.188 L 711.5 246.188 L 711.5 187.188 L 717.1 187.188 L 727.6 212.688 C 729.1 216.488 731.2 222.588 732.3 225.888 L 732.6 225.888 C 733.7 222.588 735.8 216.488 737.3 212.688 L 747.8 187.188 L 753.5 187.188 Z " fill="rgb(51,51,51)"/><path d=" M 764 189.688 C 764 187.288 765.6 185.688 768 185.688 C 770.4 185.688 772 187.288 772 189.688 C 772 192.088 770.4 193.688 768 193.688 C 765.6 193.688 764 192.088 764 189.688 Z  M 765.6 201.888 L 770.6 201.888 L 770.6 246.188 L 765.6 246.188 L 765.6 201.888 Z " fill="rgb(51,51,51)"/><path d=" M 809.6 201.888 L 809.6 249.188 C 809.6 257.088 804 262.388 795.5 262.388 C 787.3 262.388 781.8 257.388 781.4 249.588 L 786.2 249.588 C 786.6 254.888 790 257.788 795.5 257.788 C 801.2 257.788 804.6 254.588 804.6 249.188 L 804.6 240.588 C 802.3 243.388 799 244.788 794.8 244.788 C 786.3 244.788 780.5 239.188 780.5 228.988 L 780.5 217.688 C 780.5 206.688 786.2 200.888 794.6 200.888 C 798.9 200.888 802.4 202.788 804.7 206.388 L 805.4 201.888 L 809.6 201.888 Z  M 804.6 229.088 L 804.6 216.888 C 804.6 209.188 800.6 205.688 795.7 205.688 C 789.5 205.688 785.7 209.188 785.7 217.788 L 785.7 229.188 C 785.7 236.688 789.5 240.188 795.7 240.188 C 801.2 240.088 804.6 236.588 804.6 229.088 Z " fill="rgb(51,51,51)"/><path d=" M 841.7 201.388 L 841.7 206.788 C 840.1 206.188 838.3 205.888 836.1 205.888 C 829.8 205.888 825.6 210.988 825.6 219.388 L 825.6 246.188 L 820.6 246.188 L 820.6 201.888 L 824.7 201.888 L 825.5 207.488 L 825.5 207.588 C 827.8 203.588 831.6 200.988 837.1 200.988 C 838.9 200.988 840.4 201.088 841.7 201.388 Z " fill="rgb(51,51,51)"/><path d=" M 874.5 215.588 L 874.5 246.188 L 870.2 246.188 L 869.8 241.988 C 867.5 245.188 864.1 247.188 859.6 247.188 C 851.5 247.188 845.6 242.188 845.6 233.588 C 845.6 225.088 851.1 220.388 860.8 220.388 L 869.6 220.388 L 869.6 215.688 C 869.6 209.188 866.6 205.688 860.8 205.688 C 855.7 205.688 852.3 208.588 851.9 213.488 L 846.9 213.488 C 847.2 205.888 852.7 200.888 860.9 200.888 C 869.4 200.888 874.5 206.588 874.5 215.588 Z  M 869.6 232.888 L 869.6 225.088 L 860.6 225.088 C 854.1 225.088 850.6 228.088 850.6 233.788 C 850.6 239.588 854.6 242.388 860.3 242.388 C 866 242.288 869.6 238.788 869.6 232.888 Z " fill="rgb(51,51,51)"/><path d=" M 903.5 241.888 L 903.5 246.588 L 901 246.588 C 892.9 246.588 888.4 241.488 888.4 232.988 L 888.4 206.488 L 881.6 206.488 L 881.6 201.888 L 888.3 201.888 L 888.3 191.688 L 893.3 191.688 L 893.3 201.888 L 902.4 201.888 L 902.4 206.488 L 893.3 206.488 L 893.3 232.988 C 893.3 238.788 895.7 241.888 900.9 241.888 L 903.5 241.888 Z " fill="rgb(51,51,51)"/><path d=" M 909.1 189.688 C 909.1 187.288 910.7 185.688 913.1 185.688 C 915.5 185.688 917.1 187.288 917.1 189.688 C 917.1 192.088 915.5 193.688 913.1 193.688 C 910.7 193.688 909.1 192.088 909.1 189.688 Z  M 910.7 201.888 L 915.7 201.888 L 915.7 246.188 L 910.7 246.188 L 910.7 201.888 Z " fill="rgb(51,51,51)"/><path d=" M 925.7 231.188 L 925.7 216.888 C 925.7 206.488 931.6 200.888 940.5 200.888 C 949.4 200.888 955.3 206.588 955.3 216.888 L 955.3 231.188 C 955.3 241.588 949.4 247.188 940.5 247.188 C 931.6 247.188 925.7 241.588 925.7 231.188 Z  M 950.2 231.188 L 950.2 216.888 C 950.2 209.188 946.5 205.788 940.5 205.788 C 934.5 205.788 930.8 209.288 930.8 216.888 L 930.8 231.188 C 930.8 238.888 934.5 242.288 940.5 242.288 C 946.5 242.288 950.2 238.888 950.2 231.188 Z " fill="rgb(51,51,51)"/><path d=" M 993.6 217.888 L 993.6 246.188 L 988.6 246.188 L 988.6 218.588 C 988.6 209.688 986.2 205.588 980.4 205.588 C 974.2 205.588 970.2 210.688 970.2 219.288 L 970.2 246.088 L 965.2 246.088 L 965.2 201.788 L 969.3 201.788 L 970.1 207.288 C 972.4 203.288 976.2 200.788 981.6 200.788 C 988.9 200.888 993.6 205.688 993.6 217.888 Z " fill="rgb(51,51,51)"/></g></g></g></g></svg>