<?xml version="1.0" encoding="UTF-8"?>
<svg width="1000px" height="308px" viewBox="0 0 1000 308" version="1.1" xmlns="http://www.w3.org/2000/svg" xmlns:xlink="http://www.w3.org/1999/xlink">
    <!-- Generator: Sketch 43.1 (39012) - http://www.bohemiancoding.com/sketch -->
    <title>onBoard</title>
    <desc>Created with Sketch.</desc>
    <defs></defs>
    <g id="Page-1" stroke="none" stroke-width="1" fill="none" fill-rule="evenodd">
        <g id="onBoard">
            <g id="Group">
                <path d="M268.7,32.5 L265.6,37.9 L260.4,47.1 L265.6,37.9 L149.7,238.6 L153.4,238.6 L264.1,46.9 L264.1,46.9 L264.1,46.9 L271.4,34.2 C270.5,33.6 269.6,33 268.7,32.5 Z" id="Shape"></path>
                <path d="M412.6,191.1 C411.1,171.9 403,153.7 391.7,138.3 C378.2,120.1 359.3,105.6 337.4,99.1 C316.9,92.8 294.6,94.7 274.7,102.1 C280.7,102.3 286.7,101.1 292.7,101.2 C306.3,101.5 319.9,104.3 332.1,110.3 C351.3,119.4 367.1,135.9 374.8,155.9 C380.7,170.9 381.6,188.2 375.4,203.3 C369.1,219.2 355.2,231.1 339.7,237.4 C320.1,245.7 298.7,246.9 277.6,245.9 C272.8,217 262.8,182.3 246.8,148.6 C241.1,159.2 234.8,169.5 228,179.5 L265.9,245.2 C265.4,245.2 264.8,245.1 264.3,245.1 C263.6,245 262.8,245 262.1,244.9 L226,182.4 C222.1,188.1 217.9,193.6 213.7,199.1 L207.7,206.6 C218.9,220.3 230.6,232.6 242.1,243.3 C219.2,241.4 196.2,239.5 173.3,238.8 C222.4,192.1 274.8,116.2 273.5,35.6 C279.1,39.4 284.4,43.6 289.4,48.1 C302.6,59.6 313.3,73.7 323,88.2 C321.8,84.2 319.7,80.5 317.5,77 C306.5,58.4 291.7,42.1 274.1,29.5 L264,46.9 L153.4,238.5 L149.7,238.5 L265.6,37.8 L271.5,27.5 C264.8,22.9 257.7,18.7 250.2,15.2 C208.7,-4.5 158.4,-4.8 117,15.2 C96.7,24.8 78.9,39.5 65.5,57.4 C53.8,72.8 45.9,90.7 40.9,109.3 C33.8,136.1 33.4,164.9 41.1,191.7 C46.6,211.3 56.7,229.5 69.9,245 C74.8,243.6 79.7,242.2 84.7,241.1 C82,237.1 79.1,233.3 76.4,229.4 C62.3,208.1 55.6,182.3 56.1,156.8 C56.8,137.9 60.3,118.9 67.3,101.3 C91.4,42 158.8,3.4 222.1,14.6 C237.9,17.3 253,23 266.8,31.1 C188.9,74.2 148.8,171 136.4,239 C128.3,239.4 120.2,240 112.1,240.9 C87.1,243.9 62,250.1 40.2,263.1 C23,273.4 8.6,288.7 0.4,307.1 C5.3,302.8 9.4,297.5 14.4,293.3 C34.2,275.8 60.1,267 85.9,263.1 C102.8,260.7 119.9,259.7 137,260.2 C187.7,260.9 237.8,269.5 288.3,271.4 C311.2,271.9 334.5,271.7 356.6,265.3 C372.6,260.6 387.9,252 397.9,238.4 C408,224.9 414.1,208 412.6,191.1 Z" id="Shape" fill="#5CC6EF" fill-rule="nonzero"></path>
                <path d="M151.1,270.1 C124.9,267.7 98.1,266.6 72.3,273 C51.3,278.1 31.3,289.7 18.4,307.3 C22.7,305.4 26.6,302.7 30.8,300.6 C47.4,292.1 66,288.1 84.5,286.6 C141.2,282.3 197.1,297.4 253.8,296.9 C277,297 300.8,293.7 321.7,283.3 C324.1,282.1 326.6,280.8 328.5,278.9 C317.8,280.8 307,282.7 296.1,283.2 C247.5,285.5 199.5,274.6 151.1,270.1 Z" id="Shape" fill="#333333" fill-rule="nonzero"></path>
                <path d="M199.9,85.2 C201.1,83.7 202.3,82.2 203.5,80.7 C186.4,60.8 166.2,43.6 142.6,31.4 L185.4,105.5 C189.9,98.6 194.8,91.8 199.9,85.2 Z" id="Shape" fill="#333333" fill-rule="nonzero"></path>
                <path d="M165.2,141.2 C170.7,130 176.8,119 183.5,108.5 L139.9,33 C138.2,70.8 148.6,107.8 165.2,141.2 Z" id="Shape" fill="#333333" fill-rule="nonzero"></path>
            </g>
            <g id="Group" transform="translate(448.000000, 45.000000)" fill-rule="nonzero">
                <g id="Shape" fill="#5CC6EF">
                    <path d="M0.4,87.6 L0.4,42.9 C0.4,17.4 14.4,1.9 37.8,1.9 C61.2,1.9 75.2,17.4 75.2,42.9 L75.2,87.6 C75.2,113.1 61.2,128.6 37.8,128.6 C14.4,128.7 0.4,113.1 0.4,87.6 Z M57,87.6 L57,42.9 C57,27.5 50.4,19.2 37.8,19.2 C25.1,19.2 18.6,27.6 18.6,42.9 L18.6,87.6 C18.6,103 25.1,111.3 37.8,111.3 C50.3,111.4 57,103 57,87.6 Z"></path>
                    <path d="M156.5,68.6 L156.5,126.4 L139.6,126.4 L139.6,69.5 C139.6,54.5 135.6,48.2 126.7,48.2 C117.1,48.2 111,55.9 111,69.5 L111,126.4 L94,126.4 L94,34.4 L106,34.4 L107.7,44.7 C112.4,36.8 120.1,32.1 130.6,32.1 C146.5,32.1 156.5,43.5 156.5,68.6 Z"></path>
                    <path d="M248.2,91.5 C248.2,113.3 234.2,126.4 212.9,126.4 L178,126.4 L178,4.2 L211.2,4.2 C230.9,4.2 243.7,16.9 243.7,37.4 C243.7,49.3 238.8,58.9 231.3,63.6 C241.7,67.9 248.2,78.2 248.2,91.5 Z M195.6,20.8 L195.6,55.9 L209.6,55.9 C220.3,55.9 225.7,49.8 225.7,37.9 C225.7,26.4 220.5,20.8 209.1,20.8 L195.6,20.8 Z M230.2,91.5 C230.2,78.9 222.3,72.5 209.9,72.5 L195.6,72.5 L195.6,109.9 L210.6,109.9 C223.5,109.8 230.2,103.9 230.2,91.5 Z"></path>
                    <path d="M261.6,93.6 L261.6,67 C261.6,44.5 274,32.1 293.9,32.1 C314,32.1 326.4,44.5 326.4,67 L326.4,93.5 C326.4,116 314,128.4 293.9,128.4 C274,128.5 261.6,116.1 261.6,93.6 Z M309.3,93.6 L309.3,67 C309.3,54.1 303.5,48.5 293.9,48.5 C284.5,48.5 278.7,54.1 278.7,67 L278.7,93.5 C278.7,106.4 284.5,112 293.9,112 C303.5,112.1 309.3,106.5 309.3,93.6 Z"></path>
                    <path d="M403.5,65.3 L403.5,126.4 L389.7,126.4 L388.5,117.7 C384.7,124.2 378,128.7 368.1,128.7 C351.2,128.7 339.8,117.5 339.8,100.2 C339.8,81.5 352.7,71.9 373.1,71.9 L386.5,71.9 L386.5,65.3 C386.5,54.5 382.5,48.4 373.2,48.4 C365.7,48.4 360.1,52.4 359.2,60.6 L342.3,60.6 C343.2,43 355,32.1 373.6,32.1 C393.4,32.1 403.5,44.2 403.5,65.3 Z M386.6,86.1 L373.2,86.1 C362.9,86.1 357,91 357,100.2 C357,108.6 362.4,113.6 371.7,113.6 C381,113.6 386.7,107.7 386.7,98.1 L386.7,86.1 L386.6,86.1 Z"></path>
                    <path d="M470.9,33.7 L470.9,50.5 C467.6,49.1 464.1,48.4 459.6,48.4 C448.1,48.4 440.7,56.4 440.7,71.3 L440.7,126.5 L423.8,126.5 L423.8,34.5 L435.8,34.5 L437.7,45.7 C442.6,37.3 450.4,32.4 461.3,32.4 C465.2,32.3 468.3,32.6 470.9,33.7 Z"></path>
                    <path d="M543.7,0 L543.7,126.4 L531.5,126.4 L530.3,117.8 C525.8,123.7 517.9,128.5 509.5,128.5 C492.2,128.5 480.3,115.2 480.3,92.7 L480.3,67.4 C480.3,45.2 491.6,32.1 509.5,32.1 C516.1,32.1 522.8,34.9 527.3,39.6 L527.3,0 L543.7,0 Z M527.3,67.4 C527.3,55.5 521.5,48.2 512.3,48.2 C502.5,48.2 497.5,54.1 497.5,67.4 L497.5,92.7 C497.5,106.3 503.1,112.4 512.3,112.4 C521,112.4 527.3,106.1 527.3,92.8 L527.3,67.4 Z"></path>
                </g>
                <g transform="translate(0.000000, 140.000000)" id="Shape" fill="#333333">
                    <path d="M0.4,46.3 L5.6,46.3 C5.9,53.6 10.1,57.5 16.6,57.5 C23.8,57.5 27.3,53 27.3,46.6 C27.3,32.9 1.2,32.9 1.2,15.7 C1.2,7.6 7.4,1.3 16.5,1.3 C25.8,1.3 31.5,7.9 31.9,17.2 L26.7,17.2 C26.4,9.8 22.3,6.4 16.7,6.4 C10.3,6.4 6.6,10.1 6.6,15.8 C6.6,29.5 32.7,29 32.7,46.7 C32.7,54.7 27.2,62.6 16.8,62.6 C7.1,62.6 0.7,56.1 0.4,46.3 Z"></path>
                    <path d="M58.3,57.2 L58.3,61.9 L55.8,61.9 C47.7,61.9 43.2,56.8 43.2,48.3 L43.2,21.8 L36.5,21.8 L36.5,17.2 L43.2,17.2 L43.2,7 L48.2,7 L48.2,17.2 L57.3,17.2 L57.3,21.8 L48.2,21.8 L48.2,48.3 C48.2,54.1 50.6,57.2 55.8,57.2 L58.3,57.2 Z"></path>
                    <path d="M93.4,17.2 L93.4,61.5 L89.3,61.5 L88.5,56 C86.2,60 82.4,62.5 77,62.5 C69.8,62.5 65.1,57.7 65.1,45.5 L65.1,17.2 L70.1,17.2 L70.1,44.8 C70.1,53.7 72.5,57.8 78.3,57.8 C84.5,57.8 88.5,52.7 88.5,44.1 L88.5,17.3 L93.4,17.3 L93.4,17.2 Z"></path>
                    <path d="M132.4,0.4 L132.4,61.5 L128.4,61.5 L127.7,57.4 C125.3,60.7 121.5,62.5 117.2,62.5 C109.2,62.5 103.5,56.8 103.5,45.5 L103.5,32.8 C103.5,21.8 108.7,16.2 117.2,16.2 C121.2,16.2 125,17.8 127.5,21.2 L127.5,0.5 L132.4,0.5 L132.4,0.4 Z M127.5,45.7 L127.5,32.8 C127.5,25.7 123.9,20.8 118.3,20.8 C111.8,20.8 108.5,24.3 108.5,32.8 L108.5,45.5 C108.5,54.2 112.1,57.8 118.3,57.8 C123.4,57.9 127.5,54 127.5,45.7 Z"></path>
                    <path d="M169.9,17.2 L154.9,66.9 C152.9,73.5 150.4,77.6 144.3,77.6 L141.4,77.6 L141.4,72.7 L143.6,72.7 C147.6,72.7 148.8,69.7 149.9,66.1 L152.6,57.1 L138.6,17.2 L144.1,17.2 L151.3,37.8 L155,49.2 L164.7,17.2 L169.9,17.2 L169.9,17.2 Z"></path>
                    <path d="M229.4,61.5 C227.8,59.1 226.2,56.8 224.5,54.4 C220.9,59 216.2,62.6 209.8,62.6 C202.1,62.6 196.3,57.4 196.3,48.3 C196.3,40 201.4,34.5 206.8,29.6 C202.8,23.4 200.2,17.7 200.2,13 C200.2,6.6 204.2,1.4 212,1.4 C220.4,1.4 224,7.6 223.8,14 C223.5,20.9 218.6,25.8 213.5,30.5 C216.6,35.2 220.2,40.3 224,45.3 C225.3,42.7 226.3,40.1 227,37.9 L232.8,37.9 C231.6,41.4 229.9,45.9 227.5,50.1 C230.5,54.1 233.3,58.1 235.6,61.6 L229.4,61.6 L229.4,61.5 Z M221.3,49.9 C217.3,44.3 213.2,39 209.7,34 C205.5,38 201.9,42.3 201.9,47.7 C201.9,53.5 205.6,57.5 210.3,57.5 C214.7,57.5 218.4,54.2 221.3,49.9 Z M210.7,26.1 C215,22.2 218.6,18.5 218.6,13.8 C218.6,9.8 216.2,6.5 212,6.5 C207.8,6.5 205.4,9.5 205.4,13.2 C205.5,16.3 207.6,20.8 210.7,26.1 Z"></path>
                    <path d="M305.9,2.5 L305.9,61.5 L300.7,61.5 L300.7,30.3 C300.7,24.1 300.9,18.8 301.2,13.6 L300.9,13.5 C299.4,17.7 297,23.4 294.8,29 L287.5,47.6 L282.3,47.6 L275,29 C272.8,23.4 270.4,17.7 268.9,13.5 L268.6,13.6 C268.9,18.8 269.1,24.1 269.1,30.3 L269.1,61.5 L263.9,61.5 L263.9,2.5 L269.5,2.5 L280,28 C281.5,31.8 283.6,37.9 284.7,41.2 L285,41.2 C286.1,37.9 288.2,31.8 289.7,28 L300.2,2.5 L305.9,2.5 Z"></path>
                    <path d="M316.4,5 C316.4,2.6 318,1 320.4,1 C322.8,1 324.4,2.6 324.4,5 C324.4,7.4 322.8,9 320.4,9 C318,9 316.4,7.4 316.4,5 Z M318,17.2 L323,17.2 L323,61.5 L318,61.5 L318,17.2 Z"></path>
                    <path d="M362,17.2 L362,64.5 C362,72.4 356.4,77.7 347.9,77.7 C339.7,77.7 334.2,72.7 333.8,64.9 L338.6,64.9 C339,70.2 342.4,73.1 347.9,73.1 C353.6,73.1 357,69.9 357,64.5 L357,55.9 C354.7,58.7 351.4,60.1 347.2,60.1 C338.7,60.1 332.9,54.5 332.9,44.3 L332.9,33 C332.9,22 338.6,16.2 347,16.2 C351.3,16.2 354.8,18.1 357.1,21.7 L357.8,17.2 L362,17.2 Z M357,44.4 L357,32.2 C357,24.5 353,21 348.1,21 C341.9,21 338.1,24.5 338.1,33.1 L338.1,44.5 C338.1,52 341.9,55.5 348.1,55.5 C353.6,55.4 357,51.9 357,44.4 Z"></path>
                    <path d="M394.1,16.7 L394.1,22.1 C392.5,21.5 390.7,21.2 388.5,21.2 C382.2,21.2 378,26.3 378,34.7 L378,61.5 L373,61.5 L373,17.2 L377.1,17.2 L377.9,22.8 L377.9,22.9 C380.2,18.9 384,16.3 389.5,16.3 C391.3,16.3 392.8,16.4 394.1,16.7 Z"></path>
                    <path d="M426.9,30.9 L426.9,61.5 L422.6,61.5 L422.2,57.3 C419.9,60.5 416.5,62.5 412,62.5 C403.9,62.5 398,57.5 398,48.9 C398,40.4 403.5,35.7 413.2,35.7 L422,35.7 L422,31 C422,24.5 419,21 413.2,21 C408.1,21 404.7,23.9 404.3,28.8 L399.3,28.8 C399.6,21.2 405.1,16.2 413.3,16.2 C421.8,16.2 426.9,21.9 426.9,30.9 Z M422,48.2 L422,40.4 L413,40.4 C406.5,40.4 403,43.4 403,49.1 C403,54.9 407,57.7 412.7,57.7 C418.4,57.6 422,54.1 422,48.2 Z"></path>
                    <path d="M455.9,54.2 L455.9,58.9 L453.4,58.9 C445.3,58.9 440.8,53.8 440.8,45.3 L440.8,18.8 L434,18.8 L434,14.2 L440.7,14.2 L440.7,4 L445.7,4 L445.7,14.2 L454.8,14.2 L454.8,18.8 L445.7,18.8 L445.7,45.3 C445.7,51.1 448.1,54.2 453.3,54.2 L455.9,54.2 Z"></path>
                    <path d="M461.5,5 C461.5,2.6 463.1,1 465.5,1 C467.9,1 469.5,2.6 469.5,5 C469.5,7.4 467.9,9 465.5,9 C463.1,9 461.5,7.4 461.5,5 Z M463.1,17.2 L468.1,17.2 L468.1,61.5 L463.1,61.5 L463.1,17.2 Z"></path>
                    <path d="M478.1,46.5 L478.1,32.2 C478.1,21.8 484,16.2 492.9,16.2 C501.8,16.2 507.7,21.9 507.7,32.2 L507.7,46.5 C507.7,56.9 501.8,62.5 492.9,62.5 C484,62.5 478.1,56.9 478.1,46.5 Z M502.6,46.5 L502.6,32.2 C502.6,24.5 498.9,21.1 492.9,21.1 C486.9,21.1 483.2,24.6 483.2,32.2 L483.2,46.5 C483.2,54.2 486.9,57.6 492.9,57.6 C498.9,57.6 502.6,54.2 502.6,46.5 Z"></path>
                    <path d="M546,33.2 L546,61.5 L541,61.5 L541,33.9 C541,25 538.6,20.9 532.8,20.9 C526.6,20.9 522.6,26 522.6,34.6 L522.6,61.4 L517.6,61.4 L517.6,17.1 L521.7,17.1 L522.5,22.6 C524.8,18.6 528.6,16.1 534,16.1 C541.3,16.2 546,21 546,33.2 Z"></path>
                </g>
            </g>
        </g>
    </g>
</svg>